Homer Hobbs, home after two years in jail, discovers that life on the outside can be crueler than the back-breaking injustice of the chain gang

Cast: Tyson Beckford ...
Homer Hobbs
Lynn Whitfield ...
Gracie
Glynn Turman ...
Clarence Brown
Linara Washington ...
Lucy Waters
Reginald T. Dorsey ...
Benny Potter
James Russo ...
Ramsey

--------------------------------------------------------------------------------
Format;Avi

File Size:734mb

Video: ID : 0
Format : MPEG-4 Visual
Format profile : Advanced Simple@L5
Format settings, BVOP : Yes
Format settings, QPel : No
Format settings, GMC : No warppoints
Format settings, Matrix : Default (H.263)
Muxing mode : Packed bitstream
Codec ID : XVID
Codec ID/Hint : XviD
Duration : 1h 39mn
Bit rate : 826 Kbps
Width : 720 pixels
Height : 400 pixels
Display aspect ratio : 16:9
Frame rate : 29.970 fps
Color space : YUV
Chroma subsampling : 4:2:0
Bit depth : 8 bits
Scan type : Progressive
Bits/(Pixel*Frame) : 0.096
Stream size : 589 MiB (80%)
Writing library : XviD 1.2.1 (UTC 2008-12-04)


Audio: ID : 1
Format : AC-3
Format/Info : Audio Coding 3
Mode extension : CM (complete main)
Codec ID : 2000
Duration : 1h 39mn
Bit rate mode : Constant
Bit rate : 192 Kbps
Channel(s) : 2 channels
Channel positions : Front: L R
Sampling rate : 48.0 KHz
Bit depth : 16 bits
Stream size : 137 MiB (19%)
Alignment : Aligned on interleaves
Interleave, duration : 33 ms (1.00 video frame)
Interleave, preload duration : 512 ms


Duration:1:39

Release Date:2010

Language:English 
--------------------------------------------------------------------------------
